<?xml version="1.0" encoding="UTF-8" standalone="no"?>
<!-- Created with Inkscape (http://www.inkscape.org/) -->

<svg
   width="24mm"
   height="24mm"
   viewBox="0 0 24 24"
   version="1.1"
   id="svg1"
   inkscape:version="1.3.2 (091e20e, 2023-11-25, custom)"
   sodipodi:docname="illustrations-in-physics.svg"
   xmlns:inkscape="http://www.inkscape.org/namespaces/inkscape"
   xmlns:sodipodi="http://sodipodi.sourceforge.net/DTD/sodipodi-0.dtd"
   xmlns="http://www.w3.org/2000/svg"
   xmlns:svg="http://www.w3.org/2000/svg">
  <sodipodi:namedview
     id="namedview1"
     pagecolor="#ffffff"
     bordercolor="#000000"
     borderopacity="0.25"
     inkscape:showpageshadow="2"
     inkscape:pageopacity="0.0"
     inkscape:pagecheckerboard="0"
     inkscape:deskcolor="#d1d1d1"
     inkscape:document-units="mm"
     inkscape:zoom="5.5375421"
     inkscape:cx="66.365184"
     inkscape:cy="47.042532"
     inkscape:window-width="1920"
     inkscape:window-height="991"
     inkscape:window-x="-9"
     inkscape:window-y="-9"
     inkscape:window-maximized="1"
     inkscape:current-layer="layer1" />
  <defs
     id="defs1" />
  <g
     inkscape:label="Warstwa 1"
     inkscape:groupmode="layer"
     id="layer1">
    <path
       style="fill:#ffffff;stroke-width:0.18087;paint-order:markers fill stroke"
       d="M 23.295534,79.383879 5.6884444,79.27705 4.4102123,78.613201 C 2.7633674,77.757916 1.5931326,76.557834 0.75778268,74.867619 L 0.09029277,73.517045 V 45.607213 17.697382 L 0.495324,16.704162 C 1.3124484,14.700404 3.0526367,12.960215 5.056395,12.143091 L 6.0496154,11.73806 H 45.326969 84.604323 l 1.220493,0.578136 c 1.695196,0.802998 3.055316,2.140905 3.886835,3.823353 l 0.671409,1.358491 v 27.909844 c 0,26.579123 -0.01576,27.955033 -0.330446,28.857641 -0.729105,2.091246 -2.917092,4.196595 -5.00601,4.816937 -0.734571,0.218144 -4.362856,0.272005 -22.509853,0.334155 -11.89877,0.04075 -29.557318,0.02602 -39.241217,-0.03274 z M 83.249932,45.507555 V 18.871188 H 45.236677 7.2234214 V 45.507555 72.143921 H 45.236677 83.249932 Z"
       id="path10"
       transform="scale(0.26458333)" />
    <path
       style="fill:#ffffff;stroke-width:0.18087;paint-order:markers fill stroke"
       d="m 18.419725,60.789577 c -3.273311,-1.077819 -4.913921,-4.425456 -3.619261,-7.385037 0.54897,-1.254939 1.990969,-2.577811 3.254915,-2.986021 0.521167,-0.168318 1.080456,-0.306533 1.242864,-0.307144 0.199971,-7.51e-4 2.21154,-3.322085 6.231743,-10.289327 3.26505,-5.658521 6.031926,-10.418784 6.148614,-10.578363 0.187493,-0.256412 0.452589,-0.149792 2.280187,0.917078 1.137414,0.663972 2.093811,1.231589 2.125323,1.26137 0.04208,0.03977 -8.803485,15.470161 -11.66406,20.347037 -0.266163,0.45377 -0.254164,0.54766 0.199052,1.557558 1.230361,2.741612 0.0094,5.909002 -2.748025,7.128731 -0.884365,0.391197 -2.734159,0.570271 -3.451352,0.334118 z"
       id="path11"
       transform="scale(0.26458333)" />
    <path
       style="fill:#ffffff;stroke-width:0.18087;paint-order:markers fill stroke"
       d="m 40.97855,67.248964 c -1.739557,-0.258076 -3.139779,-1.288833 -3.948036,-2.9063 -0.461015,-0.922572 -0.551944,-1.316624 -0.550472,-2.385522 0.0027,-1.948233 0.965524,-3.751592 2.42174,-4.535816 l 0.64645,-0.348136 V 43.570341 30.067492 h 2.61849 2.618491 l 5e-6,13.679354 5e-6,13.679354 0.615001,0.490711 c 0.338251,0.26989 0.866461,0.993924 1.173801,1.608966 1.639183,3.280295 -0.341754,7.169347 -3.931177,7.717834 -0.460513,0.07037 -1.209447,0.07273 -1.664298,0.0053 z"
       id="path12"
       transform="scale(0.26458333)" />
    <path
       style="fill:#ffffff;stroke-width:0.18087;paint-order:markers fill stroke"
       d="m 51.934726,67.175556 c -1.390891,-0.531219 -2.34545,-1.41296 -3.125534,-2.887105 -0.382046,-0.721963 -0.479131,-1.156279 -0.484405,-2.167027 -0.0088,-1.692005 0.518343,-2.871633 1.811499,-4.053506 l 0.96942,-0.885996 V 43.715 30.248077 h 2.528198 2.528197 l 0.01029,13.498769 0.01028,13.498769 0.847497,0.645156 c 0.490719,0.373557 1.075565,1.057762 1.389254,1.62527 0.483369,0.874483 0.541523,1.145544 0.539589,2.51509 -0.0018,1.240961 -0.07979,1.681024 -0.407426,2.297446 -1.02583,1.930027 -2.590757,2.962348 -4.634671,3.057309 -0.82883,0.03851 -1.523713,-0.03523 -1.982188,-0.21033 z"
       id="path13"
       transform="scale(0.26458333)" />
    <path
       style="fill:#ffffff;stroke-width:0.18087;paint-order:markers fill stroke"
       d="m 64.107865,67.289009 c -1.724545,-0.561558 -3.203528,-1.951254 -3.714794,-3.49053 -0.634452,-1.910158 0.0082,-4.443475 1.447796,-5.707516 l 0.551435,-0.484177 -0.04628,-13.679355 -0.04628,-13.679354 h 2.529333 2.529333 v 13.35966 13.359659 l 0.677195,0.349539 c 0.372458,0.192248 0.977924,0.661163 1.34548,1.042038 3.179121,3.294308 0.930659,8.862026 -3.647945,9.033169 -0.645593,0.02413 -1.376965,-0.02228 -1.62527,-0.103133 z"
       id="path14"
       transform="scale(0.26458333)" />
  </g>
</svg>
