<?xml version="1.0" encoding="UTF-8" standalone="no"?>
<!-- Created with Inkscape (http://www.inkscape.org/) -->

<svg
   width="24mm"
   height="24mm"
   viewBox="0 0 24 24"
   version="1.1"
   id="svg1"
   inkscape:version="1.3.2 (091e20e, 2023-11-25, custom)"
   sodipodi:docname="teching.svg"
   xmlns:inkscape="http://www.inkscape.org/namespaces/inkscape"
   xmlns:sodipodi="http://sodipodi.sourceforge.net/DTD/sodipodi-0.dtd"
   xmlns="http://www.w3.org/2000/svg"
   xmlns:svg="http://www.w3.org/2000/svg">
  <sodipodi:namedview
     id="namedview1"
     pagecolor="#ffffff"
     bordercolor="#000000"
     borderopacity="0.25"
     inkscape:showpageshadow="2"
     inkscape:pageopacity="0.0"
     inkscape:pagecheckerboard="0"
     inkscape:deskcolor="#d1d1d1"
     inkscape:document-units="mm"
     inkscape:zoom="11.313709"
     inkscape:cx="28.416854"
     inkscape:cy="42.028659"
     inkscape:window-width="1920"
     inkscape:window-height="991"
     inkscape:window-x="-9"
     inkscape:window-y="-9"
     inkscape:window-maximized="1"
     inkscape:current-layer="layer1" />
  <defs
     id="defs1" />
  <g
     inkscape:label="Warstwa 1"
     inkscape:groupmode="layer"
     id="layer1">
    <path
       style="fill:#ffffff;stroke:none;stroke-width:0.0885275;paint-order:markers fill stroke"
       d="M 39.59798,42.427299 V 23.82066 H 58.247921 76.897862 V 42.426407 61.032154 H 64.21922 51.540578 l 0.83194,-1.436311 c 0.457567,-0.789971 2.752271,-4.766659 5.099341,-8.837084 l 4.267402,-7.400773 6.120893,-0.0018 6.120893,-0.0018 V 41.940271 40.526057 H 59.308581 44.636115 v 1.414214 1.414213 h 6.584932 c 3.621713,0 6.583212,0.02983 6.581109,0.06629 -0.0021,0.03646 -2.279216,4.003992 -5.060253,8.816737 l -5.05643,8.750447 -4.043747,0.02299 -4.043746,0.02299 z M 73.80427,35.753087 V 34.338873 H 59.175999 44.547727 V 35.753087 37.1673 H 59.175999 73.80427 Z m 0.176777,-6.275573 V 28.0633 H 59.352775 44.724504 v 1.414214 1.414213 h 14.628271 14.628272 z"
       id="path11"
       transform="scale(0.26458333)" />
    <path
       style="fill:#ffffff;stroke:none;stroke-width:0.0885275;paint-order:markers fill stroke"
       d="m 44.282562,70.339024 c -0.704897,-0.410645 -1.306343,-0.773437 -1.336547,-0.806206 -0.0302,-0.03277 3.332661,-5.926353 7.473032,-13.096858 l 7.527947,-13.037281 1.829842,-0.02389 c 1.006413,-0.01314 1.829842,-0.0093 1.829842,0.0085 0,0.02859 -4.107626,7.150508 -13.161366,22.81955 -1.51683,2.625134 -2.785603,4.797678 -2.819496,4.827875 -0.03389,0.0302 -0.638357,-0.281077 -1.343254,-0.691723 z"
       id="path12"
       transform="scale(0.26458333)" />
    <path
       style="fill:#ffffff;stroke:none;stroke-width:0.0885275;paint-order:markers fill stroke"
       d="m 9.7244691,70.555998 c 9.629e-4,-1.081652 0.040662,-2.245064 0.08822,-2.585359 0.2708229,-1.937848 2.1454349,-3.764883 5.3229039,-5.18781 2.756266,-1.234305 6.454656,-2.138302 9.767824,-2.387548 4.557776,-0.342877 11.374818,1.338955 14.791266,3.649151 0.729255,0.493121 1.879187,1.608787 2.285784,2.217671 0.640262,0.958799 0.7242,1.389235 0.777018,3.984536 l 0.04632,2.276 H 26.263261 9.7227182 Z"
       id="path13"
       transform="scale(0.26458333)" />
    <path
       style="fill:#ffffff;stroke:none;stroke-width:0.0885275;paint-order:markers fill stroke"
       d="m 25.053642,58.870064 c -0.342745,-0.06226 -0.846376,-0.178092 -1.11918,-0.257399 -2.894762,-0.84153 -5.473683,-3.51622 -6.274719,-6.507734 -0.147312,-0.550143 -0.177618,-0.941078 -0.178152,-2.298097 -6.05e-4,-1.53683 0.0138,-1.680374 0.23956,-2.386486 0.973442,-3.044695 2.950175,-5.148866 5.869347,-6.247736 0.68032,-0.256094 2.012134,-0.468543 2.941708,-0.469257 3.00807,-0.0023 5.838924,1.475583 7.518776,3.925297 0.773923,1.128605 1.402092,2.655922 1.566257,3.808162 0.507064,3.558976 -1.029479,7.007647 -4.03081,9.046897 -1.783559,1.211835 -4.417035,1.770697 -6.532787,1.386353 z"
       id="path14"
       transform="scale(0.26458333)" />
    <path
       style="fill:#ffffff;stroke:none;stroke-width:0.0885275;paint-order:markers fill stroke"
       d="M 12.197592,79.506395 C 5.8429599,79.448414 6.3574282,79.505783 4.6922273,78.669469 2.8075476,77.722926 1.4358072,76.083543 0.69526831,73.892658 L 0.48613591,73.27394 0.46104845,46.757436 C 0.4464205,31.296235 0.46989012,19.688166 0.51734112,18.915106 0.58831159,17.758873 0.63370363,17.498832 0.87220503,16.882174 1.3973668,15.524341 2.2785678,14.297018 3.3610564,13.415742 4.0312868,12.870094 5.2500161,12.24298 6.1871843,11.96152 l 0.6629126,-0.199094 19.4896311,-0.04758 c 25.777662,-0.06293 57.413557,0.02476 58.424697,0.161943 0.855997,0.116139 2.035712,0.629505 2.956462,1.286539 1.606887,1.146651 2.909749,3.189831 3.145136,4.932265 0.122939,0.910079 0.205521,37.977223 0.105987,47.576951 l -0.08064,7.778175 -0.246091,0.662912 c -0.832795,2.24342 -2.232295,3.808103 -4.230235,4.729544 -1.229678,0.567122 -1.376213,0.58637 -5.053573,0.663836 -3.768231,0.07938 -60.451817,0.07888 -69.163882,-6.14e-4 z m 30.66029,-6.961659 c -0.0058,-0.03646 -0.0058,-0.135897 0,-0.220971 0.0099,-0.146837 1.045651,-0.154679 20.428175,-0.154679 H 83.703765 V 45.608387 19.047689 H 45.74097 7.7781746 v 26.560698 26.560699 h 0.9280776 0.9280777 v 0.220971 0.22097 H 26.251339 c 9.139355,0 16.612299,-0.02983 16.606543,-0.06629 z"
       id="path15"
       transform="scale(0.26458333)" />
  </g>
</svg>
